<?xml version="1.0" encoding="UTF-8" standalone="no"?>
<!-- Created with Inkscape (http://www.inkscape.org/) -->
<svg
   xmlns:dc="http://purl.org/dc/elements/1.1/"
   xmlns:cc="http://creativecommons.org/ns#"
   xmlns:rdf="http://www.w3.org/1999/02/22-rdf-syntax-ns#"
   xmlns:svg="http://www.w3.org/2000/svg"
   xmlns="http://www.w3.org/2000/svg"
   xmlns:sodipodi="http://sodipodi.sourceforge.net/DTD/sodipodi-0.dtd"
   xmlns:inkscape="http://www.inkscape.org/namespaces/inkscape"
   width="744.09448819"
   height="1052.3622047"
   id="svg2"
   sodipodi:version="0.32"
   inkscape:version="0.46"
   sodipodi:docname="stoplight.svg"
   inkscape:output_extension="org.inkscape.output.svg.inkscape"
   inkscape:export-filename="C:\Documents and Settings\Robert McIntyre\Desktop\stoplight-green.png"
   inkscape:export-xdpi="90"
   inkscape:export-ydpi="90">
  <defs
     id="defs4">
    <inkscape:perspective
       sodipodi:type="inkscape:persp3d"
       inkscape:vp_x="0 : 526.18109 : 1"
       inkscape:vp_y="0 : 1000 : 0"
       inkscape:vp_z="744.09448 : 526.18109 : 1"
       inkscape:persp3d-origin="372.04724 : 350.78739 : 1"
       id="perspective10" />
  </defs>
  <sodipodi:namedview
     id="base"
     pagecolor="#ffffff"
     bordercolor="#666666"
     borderopacity="1.0"
     gridtolerance="10000"
     guidetolerance="10"
     objecttolerance="10"
     inkscape:pageopacity="0.0"
     inkscape:pageshadow="2"
     inkscape:zoom="0.35"
     inkscape:cx="375"
     inkscape:cy="648.41369"
     inkscape:document-units="px"
     inkscape:current-layer="layer4"
     showgrid="false"
     inkscape:window-width="1152"
     inkscape:window-height="804"
     inkscape:window-x="-4"
     inkscape:window-y="-4" />
  <metadata
     id="metadata7">
    <rdf:RDF>
      <cc:Work
         rdf:about="">
        <dc:format>image/svg+xml</dc:format>
        <dc:type
           rdf:resource="http://purl.org/dc/dcmitype/StillImage" />
      </cc:Work>
    </rdf:RDF>
  </metadata>
  <g
     inkscape:groupmode="layer"
     id="layer3"
     inkscape:label="bottommost"
     style="display:inline">
    <rect
       style="fill:#000000"
       id="rect2473"
       width="317.14285"
       height="791.42859"
       x="202.85713"
       y="135.21933" />
    <rect
       style="fill:#000000"
       id="rect2475"
       width="245.71428"
       height="0"
       x="100"
       y="292.36218" />
  </g>
  <g
     inkscape:groupmode="layer"
     id="layer2"
     inkscape:label="base of stoplight"
     style="display:inline">
    <rect
       style="fill:#ffe600;fill-opacity:1"
       id="rect2470"
       width="282.85715"
       height="757.14282"
       x="220"
       y="155.21933" />
  </g>
  <g
     inkscape:label="stoplight"
     inkscape:groupmode="layer"
     id="layer1">
    <rect
       style="fill:#333333"
       id="rect2391"
       width="234.28572"
       height="711.42859"
       x="245.71428"
       y="180.93361" />
    <path
       sodipodi:type="arc"
       style="fill:#ff0000"
       id="path2403"
       sodipodi:cx="382.85715"
       sodipodi:cy="550.93359"
       sodipodi:rx="0"
       sodipodi:ry="81.428574"
       d="M 382.85715,550.93359 A 0,81.428574 0 1 1 382.85715,550.93359 A 0,81.428574 0 1 1 382.85715,550.93359 z" />
    <path
       style="fill:#4d4d4d;fill-opacity:1"
       d="M 245.85714,536.51992 L 245.85714,182.23421 L 361.57143,182.23421 L 477.28571,182.23421 L 477.28571,536.51992 L 477.28571,890.80564 L 361.57143,890.80564 L 245.85714,890.80564 L 245.85714,536.51992 z M 387.72814,795.11961 C 458.41174,774.12875 451.75297,692.51301 378.2452,678.88807 C 345.86537,672.88632 309.37729,687.51835 295.08937,712.23421 C 289.72309,721.51698 288.65983,726.95118 289.42631,741.17695 C 290.8624,767.82998 304.38714,783.37601 335.4916,794.12661 C 353.56709,800.37401 369.04363,800.66821 387.72814,795.11952 L 387.72814,795.11961 z M 384.871,592.26238 C 455.5546,571.27161 448.89583,489.65587 375.38806,476.03092 C 343.00823,470.02918 306.52014,484.66121 292.23223,509.37707 C 286.86594,518.65984 285.80269,524.09404 286.56917,538.31981 C 288.00526,564.97284 301.53,580.51887 332.63446,591.26947 C 350.70994,597.51687 366.18649,597.81107 384.871,592.26238 z M 384.871,389.40524 C 455.5546,368.41447 448.89583,286.79872 375.38806,273.17378 C 343.00823,267.17204 306.52014,281.80407 292.23223,306.51992 C 286.86594,315.8027 285.80269,321.2369 286.56917,335.46267 C 288.00526,362.1157 301.53,377.66172 332.63446,388.41232 C 350.70994,394.65972 366.18649,394.95392 384.871,389.40524 z"
       id="path2465" />
  </g>
  <g
     inkscape:groupmode="layer"
     id="layer4"
     inkscape:label="lights"
     style="display:inline">
    <path
       sodipodi:type="arc"
       style="fill:#808080"
       id="path2397"
       sodipodi:cx="368.57144"
       sodipodi:cy="340.93362"
       sodipodi:rx="74.285713"
       sodipodi:ry="60"
       d="M 442.85715,340.93362 A 74.285713,60 0 1 1 294.28573,340.93362 A 74.285713,60 0 1 1 442.85715,340.93362 z"
       transform="translate(-8.5714286,-8.5714286)"
       inkscape:export-filename="C:\Documents and Settings\Robert McIntyre\Desktop\stoplight-red.png"
       inkscape:export-xdpi="90"
       inkscape:export-ydpi="90" />
    <path
       sodipodi:type="arc"
       style="fill:#808080"
       id="path2399"
       sodipodi:cx="368.57144"
       sodipodi:cy="340.93362"
       sodipodi:rx="74.285713"
       sodipodi:ry="60"
       d="M 442.85715,340.93362 A 74.285713,60 0 1 1 294.28573,340.93362 A 74.285713,60 0 1 1 442.85715,340.93362 z"
       transform="translate(-8.571442,194.28571)"
       inkscape:export-filename="C:\Documents and Settings\Robert McIntyre\Desktop\stoplight-yellow.png"
       inkscape:export-xdpi="90"
       inkscape:export-ydpi="90" />
    <path
       sodipodi:type="arc"
       style="fill:#00ff00"
       id="path2401"
       sodipodi:cx="368.57144"
       sodipodi:cy="340.93362"
       sodipodi:rx="74.285713"
       sodipodi:ry="60"
       d="M 442.85715,340.93362 A 74.285713,60 0 1 1 294.28573,340.93362 A 74.285713,60 0 1 1 442.85715,340.93362 z"
       transform="translate(-5.7142991,397.14285)" />
  </g>
</svg>
